<svg width="101" height="62" viewBox="0 0 101 62" fill="none" xmlns="http://www.w3.org/2000/svg">
<path d="M1.56783 38.5455H6.11896L10.9258 50.2727H11.1303L15.9371 38.5455H20.4883V56H16.9087V44.6392H16.7639L12.2468 55.9148H9.8093L5.29226 44.5966H5.14737V56H1.56783V38.5455ZM23.5288 56V38.5455H35.2901V41.5881H27.2191V45.7472H34.685V48.7898H27.2191V52.9574H35.3242V56H23.5288ZM49.0053 38.5455H52.6957V49.8807C52.6957 51.1534 52.3917 52.267 51.7837 53.2216C51.1815 54.1761 50.3377 54.9205 49.2525 55.4545C48.1673 55.983 46.9031 56.2472 45.4599 56.2472C44.011 56.2472 42.744 55.983 41.6587 55.4545C40.5735 54.9205 39.7298 54.1761 39.1275 53.2216C38.5252 52.267 38.2241 51.1534 38.2241 49.8807V38.5455H41.9144V49.5653C41.9144 50.2301 42.0593 50.821 42.3491 51.3381C42.6445 51.8551 43.0593 52.2614 43.5934 52.5568C44.1275 52.8523 44.7496 53 45.4599 53C46.1758 53 46.7979 52.8523 47.3263 52.5568C47.8604 52.2614 48.2724 51.8551 48.5621 51.3381C48.8576 50.821 49.0053 50.2301 49.0053 49.5653V38.5455Z" fill="#A0D29F"/>
<path d="M59.4222 38.5455V56H55.7319V38.5455H59.4222ZM62.4585 38.5455H67.0096L71.8164 50.2727H72.021L76.8278 38.5455H81.3789V56H77.7994V44.6392H77.6545L73.1374 55.9148H70.6999L66.1829 44.5966H66.038V56H62.4585V38.5455ZM99.82 44.6562H96.087C96.0188 44.1733 95.8796 43.7443 95.6694 43.3693C95.4592 42.9886 95.1893 42.6648 94.8597 42.3977C94.5302 42.1307 94.1495 41.9261 93.7177 41.7841C93.2915 41.642 92.8285 41.571 92.3285 41.571C91.4251 41.571 90.6381 41.7955 89.9677 42.2443C89.2972 42.6875 88.7773 43.3352 88.408 44.1875C88.0387 45.0341 87.854 46.0625 87.854 47.2727C87.854 48.517 88.0387 49.5625 88.408 50.4091C88.783 51.2557 89.3058 51.8949 89.9762 52.3267C90.6467 52.7585 91.4222 52.9744 92.3029 52.9744C92.7972 52.9744 93.2546 52.9091 93.6751 52.7784C94.1012 52.6477 94.479 52.4574 94.8086 52.2074C95.1381 51.9517 95.4109 51.642 95.6268 51.2784C95.8484 50.9148 96.0018 50.5 96.087 50.0341L99.82 50.0511C99.7234 50.8523 99.4819 51.625 99.0955 52.3693C98.7148 53.108 98.2006 53.7699 97.5529 54.3551C96.9109 54.9347 96.1438 55.3949 95.2518 55.7358C94.3654 56.071 93.3626 56.2386 92.2433 56.2386C90.6864 56.2386 89.2944 55.8864 88.0671 55.1818C86.8455 54.4773 85.8796 53.4574 85.1694 52.1222C84.4648 50.7869 84.1126 49.1705 84.1126 47.2727C84.1126 45.3693 84.4705 43.75 85.1864 42.4148C85.9023 41.0795 86.8739 40.0625 88.1012 39.3636C89.3285 38.6591 90.7092 38.3068 92.2433 38.3068C93.2546 38.3068 94.1921 38.4489 95.0558 38.733C95.9251 39.017 96.695 39.4318 97.3654 39.9773C98.0359 40.517 98.5813 41.179 99.0018 41.9631C99.4279 42.7472 99.7006 43.6449 99.82 44.6562Z" fill="#454974"/>
<path d="M38 16H42L47 5L55 26L60 16H64" stroke="#454974" stroke-width="2" stroke-linecap="round" stroke-linejoin="round"/>
</svg>
