<svg width="141" height="32" viewBox="0 0 141 32" fill="none" xmlns="http://www.w3.org/2000/svg">
<path d="M41.5678 6.54545H46.119L50.9258 18.2727H51.1303L55.9371 6.54545H60.4883V24H56.9087V12.6392H56.7639L52.2468 23.9148H49.8093L45.2923 12.5966H45.1474V24H41.5678V6.54545ZM63.5288 24V6.54545H75.2901V9.58807H67.2191V13.7472H74.685V16.7898H67.2191V20.9574H75.3242V24H63.5288ZM89.0053 6.54545H92.6957V17.8807C92.6957 19.1534 92.3917 20.267 91.7837 21.2216C91.1815 22.1761 90.3377 22.9205 89.2525 23.4545C88.1673 23.983 86.9031 24.2472 85.4599 24.2472C84.011 24.2472 82.744 23.983 81.6587 23.4545C80.5735 22.9205 79.7298 22.1761 79.1275 21.2216C78.5252 20.267 78.2241 19.1534 78.2241 17.8807V6.54545H81.9144V17.5653C81.9144 18.2301 82.0593 18.821 82.3491 19.3381C82.6445 19.8551 83.0593 20.2614 83.5934 20.5568C84.1275 20.8523 84.7496 21 85.4599 21C86.1758 21 86.7979 20.8523 87.3263 20.5568C87.8604 20.2614 88.2724 19.8551 88.5621 19.3381C88.8576 18.821 89.0053 18.2301 89.0053 17.5653V6.54545Z" fill="#A0D29F"/>
<path d="M99.4222 6.54545V24H95.7319V6.54545H99.4222ZM102.458 6.54545H107.01L111.816 18.2727H112.021L116.828 6.54545H121.379V24H117.799V12.6392H117.654L113.137 23.9148H110.7L106.183 12.5966H106.038V24H102.458V6.54545ZM139.82 12.6562H136.087C136.019 12.1733 135.88 11.7443 135.669 11.3693C135.459 10.9886 135.189 10.6648 134.86 10.3977C134.53 10.1307 134.15 9.92614 133.718 9.78409C133.292 9.64205 132.828 9.57102 132.328 9.57102C131.425 9.57102 130.638 9.79545 129.968 10.2443C129.297 10.6875 128.777 11.3352 128.408 12.1875C128.039 13.0341 127.854 14.0625 127.854 15.2727C127.854 16.517 128.039 17.5625 128.408 18.4091C128.783 19.2557 129.306 19.8949 129.976 20.3267C130.647 20.7585 131.422 20.9744 132.303 20.9744C132.797 20.9744 133.255 20.9091 133.675 20.7784C134.101 20.6477 134.479 20.4574 134.809 20.2074C135.138 19.9517 135.411 19.642 135.627 19.2784C135.848 18.9148 136.002 18.5 136.087 18.0341L139.82 18.0511C139.723 18.8523 139.482 19.625 139.096 20.3693C138.715 21.108 138.201 21.7699 137.553 22.3551C136.911 22.9347 136.144 23.3949 135.252 23.7358C134.365 24.071 133.363 24.2386 132.243 24.2386C130.686 24.2386 129.294 23.8864 128.067 23.1818C126.846 22.4773 125.88 21.4574 125.169 20.1222C124.465 18.7869 124.113 17.1705 124.113 15.2727C124.113 13.3693 124.471 11.75 125.186 10.4148C125.902 9.07955 126.874 8.0625 128.101 7.36364C129.328 6.65909 130.709 6.30682 132.243 6.30682C133.255 6.30682 134.192 6.44886 135.056 6.73295C135.925 7.01705 136.695 7.43182 137.365 7.97727C138.036 8.51704 138.581 9.17898 139.002 9.96307C139.428 10.7472 139.701 11.6449 139.82 12.6562Z" fill="#454974"/>
<path d="M3 16H7L12 5L20 26L25 16H29" stroke="#454974" stroke-width="2" stroke-linecap="round" stroke-linejoin="round"/>
</svg>
